<svg
        width="58"
        height="65"
        viewBox="0 0 58 65"
        fill="none"
        xmlns="http://www.w3.org/2000/svg"
      >
        <path
          d="M56.825 2.95829C45.7275 -1.5198 33.7263 2.76429 33.2211 2.94855C32.9909 3.03215 32.8099 3.21316 32.7255 3.44287L31.4195 7.00537L30.4569 4.22452C30.3749 3.9867 30.1894 3.7992 29.9524 3.71397C29.7158 3.62955 29.4532 3.65634 29.2385 3.78702L21.8566 8.2927C21.6663 8.40877 21.5303 8.59709 21.48 8.81462L20.5583 12.7878L19.6143 10.3325C19.5116 10.0662 19.2791 9.87062 18.9987 9.81543C18.715 9.75861 18.428 9.85358 18.2332 10.0614L10.564 18.2107C10.4414 18.3414 10.3639 18.507 10.3436 18.6847L9.56156 25.4347L7.94346 22.8455C7.77544 22.5768 7.46538 22.4331 7.15409 22.4591C6.83875 22.4916 6.56927 22.7002 6.45888 22.9972L0.706855 38.5273C0.650442 38.6807 0.639891 38.8463 0.677228 39.0054L4.8487 56.8486C3.28254 60.2987 2.38279 62.6051 2.2446 62.964C2.07942 63.3925 2.29289 63.8731 2.72147 64.0378C2.81968 64.076 2.92073 64.0938 3.02017 64.0938C3.35377 64.0938 3.66871 63.8917 3.79573 63.5614C3.83008 63.4722 4.71345 61.2095 6.32211 57.6905L26.8651 53.5321C27.0437 53.4956 27.2052 53.4023 27.325 53.2651L34.8976 44.6369C35.0819 44.4274 35.1484 44.1393 35.0745 43.8698C35.0011 43.6003 34.7969 43.386 34.5315 43.2992L31.8456 42.4201L36.3213 41.1498C36.4873 41.1028 36.6346 41.0054 36.7426 40.8706L42.5904 33.5849C42.7677 33.3641 42.8205 33.0679 42.73 32.7992C42.6395 32.5305 42.4187 32.3268 42.1439 32.2586L41.0331 31.981L43.8404 31.3852C44.0401 31.343 44.217 31.2286 44.3379 31.0638L49.5465 23.9697C49.7158 23.7391 49.7543 23.438 49.6496 23.1726C49.5445 22.9072 49.3107 22.7132 49.0299 22.6612L47.0319 22.2862C52.6939 16.3138 57.0965 4.5492 57.2933 4.01835C57.4495 3.59627 57.2422 3.12712 56.825 2.95829ZM44.7503 22.1807C44.5108 22.3909 44.4122 22.7188 44.4958 23.0257C44.5798 23.3325 44.8319 23.5646 45.1444 23.6231L47.4244 24.0508L43.1853 29.8244L37.1683 31.1011C36.7896 31.1815 36.5165 31.5127 36.5096 31.8998C36.5027 32.2862 36.7637 32.6271 37.1391 32.7205L40.4816 33.5565L35.6123 39.6231L28.7734 41.5638C28.4215 41.6636 28.1764 41.981 28.1691 42.3471C28.1618 42.7123 28.3944 43.0395 28.7418 43.1531L32.8176 44.4875L26.2608 51.9583L7.19265 55.8179C12.5057 44.5664 23.6481 24.1891 37.745 16.343C38.146 16.1198 38.2905 15.6133 38.0668 15.2123C37.844 14.8122 37.3375 14.6685 36.9366 14.8901C22.548 22.8989 11.4545 42.8607 5.98389 54.4022L2.35255 38.8706L7.43047 25.1612L9.40937 28.3284C9.59646 28.6271 9.95198 28.7773 10.297 28.6985C10.6415 28.6206 10.8992 28.3341 10.9398 27.9834L11.9629 19.1498L18.5372 12.1636L19.9796 15.9153C20.1111 16.2562 20.4601 16.4648 20.8132 16.4461C21.1776 16.4201 21.4828 16.1604 21.5652 15.8041L23.0206 9.52972L29.2235 5.74319L30.6115 9.75293C30.7263 10.0849 31.0376 10.3089 31.3891 10.3122C31.3919 10.3122 31.3944 10.3122 31.3968 10.3122C31.7454 10.3122 32.0571 10.0947 32.1772 9.76754L34.1492 4.39011C36.1517 3.744 46.1772 0.842217 55.4378 4.20666C54.2734 7.14416 49.8392 17.7286 44.7503 22.1807Z"
          fill="white"
        />
      </svg>