<svg width="20" height="20" viewBox="0 0 20 20" fill="none" xmlns="http://www.w3.org/2000/svg">
<path d="M10 0C5.85556 0 2.5 3.35556 2.5 7.5C2.5 9.12222 3.02778 10.7 4 12L10 20L16 12C16.9722 10.7 17.5 9.12222 17.5 7.5C17.5 3.35556 14.1444 0 10 0ZM14.2222 10.6667L10 16.2944L5.77778 10.6667C5.09444 9.76111 4.72222 8.63333 4.72222 7.5C4.72222 4.58889 7.08889 2.22222 10 2.22222C12.9111 2.22222 15.2778 4.58889 15.2778 7.5C15.2778 8.63333 14.9056 9.76111 14.2222 10.6667Z" fill="black"/>
<path d="M10 4.16667C8.16111 4.16667 6.66667 5.66111 6.66667 7.5C6.66667 9.33889 8.16111 10.8333 10 10.8333C11.8389 10.8333 13.3333 9.33889 13.3333 7.5C13.3333 5.66111 11.8389 4.16667 10 4.16667ZM10 8.61111C9.38889 8.61111 8.88889 8.11111 8.88889 7.5C8.88889 6.88889 9.38889 6.38889 10 6.38889C10.6111 6.38889 11.1111 6.88889 11.1111 7.5C11.1111 8.11111 10.6111 8.61111 10 8.61111Z" fill="black"/>
</svg>
