<svg width="20" height="20" viewBox="0 0 20 20" fill="none" xmlns="http://www.w3.org/2000/svg">
<g clip-path="url(#clip0_4995_6654)">
<path d="M20 18.402L13.2637 11.6657C14.1502 10.4517 14.681 8.96104 14.681 7.34049C14.681 3.28628 11.3947 0 7.34049 0C3.28628 0 0 3.28628 0 7.34049C0 11.3947 3.28628 14.681 7.34049 14.681C8.96104 14.681 10.4517 14.1502 11.6657 13.2637L18.402 20L20 18.402ZM7.34613 12.4111C4.5511 12.4111 2.28119 10.1355 2.28119 7.34613C2.28119 4.55675 4.55674 2.2812 7.34613 2.2812C10.1355 2.2812 12.4111 4.55675 12.4111 7.34613C12.4111 10.1355 10.1355 12.4111 7.34613 12.4111Z" fill="black"/>
</g>
<defs>
<clipPath id="clip0_4995_6654">
<rect width="20" height="20" fill="white"/>
</clipPath>
</defs>
</svg>
