 <svg
        width="64"
        height="52"
        viewBox="0 0 64 52"
        fill="none"
        xmlns="http://www.w3.org/2000/svg"
      >
        <g clipPath="url(#clip0_5131_6247)">
          <path
            d="M63.9449 19.6181C63.9449 19.3805 63.871 19.16 63.745 18.9786L53.5175 1.20069C53.3173 0.852713 52.9464 0.638184 52.545 0.638184C52.5239 0.638184 52.5034 0.64117 52.4825 0.642333C52.4685 0.641813 52.4554 0.638184 52.4413 0.638184H11.5563C11.5419 0.638184 11.5287 0.641868 11.5144 0.642402C11.4933 0.641197 11.4724 0.638184 11.4511 0.638184C11.0496 0.638184 10.6788 0.852713 10.4786 1.20069L0.205057 19.0587C0.179966 19.1022 0.158108 19.1471 0.139317 19.1929C0.136962 19.1987 0.135647 19.2048 0.133346 19.2107C0.111926 19.2656 0.0960389 19.3217 0.0836032 19.3786C0.0799328 19.3955 0.0765909 19.4122 0.0736873 19.4292C0.0631691 19.4906 0.056157 19.5523 0.0559377 19.6143C0.0559377 19.6159 0.0556641 19.6174 0.0556641 19.6189C0.0557188 19.682 0.0630596 19.7449 0.0737421 19.8074C0.0766456 19.8245 0.080097 19.8414 0.0838222 19.8584C0.0959841 19.9138 0.111597 19.9685 0.132305 20.0219C0.135154 20.0294 0.136852 20.037 0.139865 20.0444C0.158874 20.0906 0.180952 20.1359 0.206371 20.1799C0.21311 20.1915 0.221546 20.2018 0.228668 20.2131C0.238145 20.2282 0.248171 20.2428 0.25847 20.2575C0.295612 20.311 0.335659 20.3618 0.3808 20.4073C0.38206 20.4086 0.382881 20.4102 0.384196 20.4115L31.2054 51.2327C31.4246 51.4517 31.7116 51.5613 31.9988 51.5613C32.286 51.5613 32.573 51.4517 32.7922 51.2327L63.5998 20.425C63.8118 20.2209 63.9449 19.9356 63.9449 19.6181ZM40.7113 20.7401L31.9987 46.6902L23.2847 20.7401H40.7113ZM23.6644 18.4962L31.998 4.01006L40.3317 18.4962H23.6644ZM42.2714 17.3682L33.9378 2.88209H50.6052L42.2714 17.3682ZM21.7245 17.3682L13.3908 2.88209H30.0582L21.7245 17.3682ZM20.9178 20.7401L29.5282 46.3821L3.88624 20.7401H20.9178ZM43.0782 20.7401H60.1113L34.4691 46.3823L43.0782 20.7401ZM44.2113 18.4962L52.545 4.01006L60.8786 18.4962H44.2113ZM11.4511 4.01006L19.7847 18.4962H3.11742L11.4511 4.01006Z"
            fill="white"
          />
        </g>
        <defs>
          <clipPath id="clip0_5131_6247">
            <rect
              width="64"
              height="51.4783"
              fill="white"
              transform="translate(0 0.36084)"
            />
          </clipPath>
        </defs>
      </svg>