<svg width="64" height="56" viewBox="0 0 64 56" fill="none" xmlns="http://www.w3.org/2000/svg">
<path fill-rule="evenodd" clip-rule="evenodd" d="M44.9601 8.09987V11.5399C55.68 12.9798 64 22.1798 64 33.3797C64 45.4597 54.08 55.3796 41.9201 55.2996C34.8001 55.2996 28.1602 51.8597 24.0002 46.0197H9.84026C9.44027 46.0197 9.12027 45.6997 9.12027 45.2997C9.12027 44.8997 9.44027 44.5797 9.84026 44.5797H24.4002H24.4802H24.6402C24.7202 44.6597 24.7202 44.6597 24.8002 44.6597L24.8802 44.7397C24.8802 44.7397 24.9602 44.7397 24.9602 44.8197L25.0402 44.8997C28.8002 50.4997 35.2001 53.8596 41.9201 53.8596C53.2801 53.8596 62.56 44.6597 62.56 33.2997C62.56 21.9398 53.2801 12.7398 42.0001 12.7398C35.2001 12.7398 28.8802 16.0998 25.0402 21.6998L24.9602 21.7798C24.9602 21.7798 24.9602 21.8598 24.8802 21.8598C24.8402 21.8598 24.8202 21.8798 24.8002 21.8998C24.7802 21.9198 24.7602 21.9398 24.7202 21.9398C24.6402 22.0198 24.6402 22.0198 24.5602 22.0198H24.4002H24.3202H9.84026C9.44027 22.0198 9.12027 21.6998 9.12027 21.2998C9.12027 20.8998 9.44027 20.5798 9.84026 20.5798H24.0802C27.6002 15.5398 33.0402 12.2598 39.0401 11.4599V8.01987H35.4401C35.0401 8.01987 34.7201 7.69987 34.7201 7.29987V1.6199C34.7201 1.2199 35.0401 0.899902 35.4401 0.899902H48.5601C48.9601 0.899902 49.2801 1.2199 49.2801 1.6199V7.37987C49.2801 7.77987 48.9601 8.09987 48.5601 8.09987H44.9601ZM42.7201 11.3399C42.9601 11.3599 43.2001 11.3799 43.4401 11.3799V8.09987H40.5601V11.3799C40.8001 11.3799 41.0401 11.3599 41.2801 11.3399L41.2801 11.3399L41.2801 11.3398C41.5201 11.3199 41.7601 11.2999 42.0001 11.2999C42.2401 11.2999 42.4801 11.3199 42.7201 11.3399ZM36.1601 6.57987H39.7601H44.1601H47.7601V2.33989H36.1601V6.57987ZM59.9197 33.2998C59.9197 43.2198 51.8398 51.2997 41.9198 51.2997C32.0798 51.2997 23.9999 43.2998 23.9999 33.3798C23.9999 23.4599 32.0798 15.3799 41.9198 15.3799C51.8398 15.3799 59.9197 23.3799 59.9197 33.2998ZM58.3997 33.3798C58.3997 24.2599 51.0398 16.8999 41.9198 16.8999C32.8798 16.8999 25.4399 24.2599 25.4399 33.3798C25.4399 42.4998 32.8798 49.8597 41.9198 49.8597C51.0398 49.8597 58.3997 42.4998 58.3997 33.3798ZM41.9195 36.8197C43.8395 36.8197 45.4395 35.2197 45.4395 33.2997C45.4395 32.3397 45.0395 31.4597 44.3995 30.8197L43.5995 19.7798C43.5195 18.9798 42.8795 18.2598 42.0795 18.2598C41.1195 18.1798 40.3195 18.8998 40.3195 19.7798L39.5195 30.8197C38.8795 31.4597 38.4795 32.3397 38.4795 33.2997C38.4795 35.2997 39.9995 36.8197 41.9195 36.8197ZM40.7195 31.8597C40.8795 31.6997 40.9595 31.5397 40.9595 31.2997L41.7595 19.9398C41.7595 19.8598 41.8395 19.7798 41.9195 19.7798C41.9995 19.7798 42.0795 19.8598 42.0795 19.9398L42.8795 31.2997C42.8795 31.5397 42.9595 31.6997 43.1195 31.8597C43.5995 32.2597 43.8395 32.8197 43.8395 33.3797C43.8395 34.4997 42.9595 35.3797 41.8395 35.3797C40.7195 35.3797 39.8395 34.4997 39.8395 33.3797C39.9995 32.7397 40.2395 32.1797 40.7195 31.8597ZM21.5201 28.0999H5.28013C4.88013 28.0999 4.56013 27.7799 4.56013 27.3799C4.56013 26.9799 4.88013 26.6599 5.28013 26.6599H21.5201C21.92 26.6599 22.24 26.9799 22.24 27.3799C22.24 27.7799 21.92 28.0999 21.5201 28.0999ZM0.719996 34.0999H20.6399C21.0399 34.0999 21.3599 33.7799 21.3599 33.3799C21.3599 32.9799 21.0399 32.6599 20.6399 32.6599H0.719996C0.319998 32.6599 0 32.9799 0 33.3799C0 33.7799 0.319998 34.0999 0.719996 34.0999ZM21.6001 38.5798C22 38.5798 22.32 38.8998 22.32 39.2998C22.32 39.6998 21.9201 40.0998 21.5201 40.0198H5.28013C4.88013 40.0198 4.56013 39.6998 4.56013 39.2998C4.56013 38.8998 4.88013 38.5798 5.28013 38.5798H21.6001Z" fill="white"/>
</svg>
