<svg width="64" height="64" viewBox="0 0 64 64" fill="none" xmlns="http://www.w3.org/2000/svg">
<path d="M42.2343 30.8308L45.7517 27.1283C50.7236 29.2705 55.8541 28.3184 59.6624 24.5366C63.6558 20.5432 64.3698 13.6672 63.3384 9.01265C63.2591 8.6424 62.9946 8.35149 62.6244 8.24571C62.2541 8.13992 61.8839 8.24571 61.6194 8.51017L52.7864 17.3697C52.6012 17.5548 52.3897 17.6341 52.1252 17.6341C51.8872 17.6341 51.6492 17.5284 51.4641 17.3697L46.9682 12.8474C46.5979 12.4771 46.5979 11.8953 46.9682 11.525L55.8541 2.5862C56.1186 2.32174 56.2244 1.95149 56.1186 1.58124C56.0128 1.211 55.7219 0.946534 55.3781 0.867195C50.6178 -0.243549 43.6624 0.417608 39.6426 4.43744C35.8343 8.19281 34.9087 13.3763 37.0244 18.3482L33.2426 21.7862L15.9467 4.411C15.788 4.25232 15.6029 4.17298 15.4178 4.12009L1.48058 1.52835C1.13678 1.44901 0.792974 1.58124 0.528511 1.81926C0.290494 2.08372 0.211155 2.42753 0.290494 2.77133L3.70206 15.9416C3.75496 16.1267 3.8343 16.2854 3.96653 16.4176L20.8393 33.3697L10.8426 41.5945C10.393 41.9647 10.3401 42.5994 10.7103 43.0226C10.9219 43.2606 11.2128 43.3928 11.5037 43.3928C11.7417 43.3928 11.9533 43.3135 12.1649 43.1548L22.2938 34.7978L30.069 42.6259L13.2756 60.8473C12.8789 61.1647 9.57314 63.4655 5.05083 58.9432C0.660742 54.5002 3.0938 51.3002 3.41116 50.9564L6.74339 47.968C7.16653 47.5978 7.19297 46.9366 6.82273 46.5135C6.45248 46.0903 5.79132 46.0639 5.36818 46.4341L1.95661 49.449C1.93016 49.4755 1.90372 49.5019 1.87727 49.5283C0.369833 51.168 -1.24339 55.5581 3.54339 60.3713C6.16157 62.9895 8.54173 63.7564 10.4194 63.7564C12.9583 63.7564 14.5715 62.3812 14.5979 62.3548C14.6244 62.3283 14.6508 62.3019 14.6773 62.2754L31.4707 44.0804L48.6343 61.3498C50.2211 62.9631 52.3632 63.8358 54.6112 63.8358C56.8591 63.8358 59.0012 62.9631 60.588 61.3498C63.8938 58.044 63.8938 52.649 60.588 49.3432L42.2343 30.8308ZM38.955 19.3531C39.2988 19.0358 39.3781 18.5598 39.193 18.1366C37.0508 13.7465 37.7649 9.14488 41.0707 5.83909C43.2393 3.6705 47.7616 1.84571 52.9979 2.50686L45.4872 10.0441C44.3236 11.2077 44.3236 13.0854 45.4872 14.249L49.9831 18.7713C50.5384 19.3267 51.2789 19.6441 52.0988 19.6441C52.8922 19.6441 53.6326 19.3267 54.2145 18.7713L61.6194 11.3399C62.1483 16.4705 60.3236 20.9135 58.1814 23.0556C54.8756 26.3879 50.3004 27.1019 45.9368 24.9333C45.5401 24.7482 45.064 24.8275 44.7467 25.1449L40.7533 29.3234L34.6707 23.2143L38.955 19.3531ZM59.1864 59.8953C57.9698 61.1118 56.3566 61.773 54.6641 61.773C52.945 61.773 51.3583 61.1118 50.1417 59.8953L5.63264 15.1482L2.67066 3.82918L14.7037 6.07711L59.1864 50.7978C61.6988 53.2837 61.6988 57.3829 59.1864 59.8953Z" fill="white"/>
</svg>
