<?xml version="1.0" encoding="utf-8"?>
<!-- Generator: Adobe Illustrator 28.1.0, SVG Export Plug-In . SVG Version: 6.00 Build 0)  -->
<svg version="1.1" id="Ebene_1" xmlns="http://www.w3.org/2000/svg" xmlns:xlink="http://www.w3.org/1999/xlink" x="0px" y="0px"
	 viewBox="0 0 18 18" style="enable-background:new 0 0 18 18;" xml:space="preserve">
<style type="text/css">
	.st0{fill:#00599C;}
</style>
<path class="st0" d="M14.2,17.7l-6.1-6.1c-0.3,0.1-0.7,0.2-1,0.3C6.7,12,6.4,12,6,12c-1.7,0-3.1-0.6-4.2-1.8S0,7.7,0,6
	c0-0.6,0.1-1.2,0.2-1.7c0.2-0.5,0.4-1.1,0.7-1.5l3.6,3.7l1.8-1.8L2.8,0.9c0.5-0.3,1-0.5,1.5-0.7S5.4,0,6,0c1.7,0,3.1,0.6,4.2,1.8
	S12,4.3,12,6c0,0.4,0,0.7-0.1,1.1c-0.1,0.3-0.2,0.7-0.3,1l6.1,6.1c0.2,0.2,0.3,0.4,0.3,0.7s-0.1,0.5-0.3,0.7l-2.1,2.1
	c-0.2,0.2-0.4,0.3-0.7,0.3S14.4,17.9,14.2,17.7z M14.9,15.6l0.7-0.7L9.2,8.5c0.3-0.3,0.5-0.7,0.6-1.2S10,6.5,10,6c0-1-0.3-1.9-1-2.6
	S7.6,2.2,6.7,2l1.8,1.9c0.2,0.2,0.3,0.4,0.3,0.7c0,0.3-0.1,0.5-0.3,0.7L5.3,8.5C5.1,8.7,4.9,8.8,4.6,8.8S4.1,8.7,3.9,8.5L2,6.7
	C2.2,7.6,2.6,8.4,3.4,9S5,10,6,10c0.4,0,0.9-0.1,1.3-0.2c0.4-0.1,0.8-0.3,1.2-0.6L14.9,15.6z"/>
</svg>
