<?xml version="1.0" encoding="utf-8"?>
<!-- Generator: Adobe Illustrator 28.1.0, SVG Export Plug-In . SVG Version: 6.00 Build 0)  -->
<svg version="1.1" id="Ebene_1" xmlns="http://www.w3.org/2000/svg" xmlns:xlink="http://www.w3.org/1999/xlink" x="0px" y="0px"
	 viewBox="0 0 20 18" style="enable-background:new 0 0 20 18;" xml:space="preserve">
<style type="text/css">
	.st0{fill:#FFFFFF;}
</style>
<path class="st0" d="M3,18c-0.8,0-1.5-0.3-2.1-0.9C0.3,16.5,0,15.8,0,15s0.3-1.5,0.9-2.1C1.5,12.3,2.2,12,3,12h14
	c0.8,0,1.5,0.3,2.1,0.9c0.6,0.6,0.9,1.3,0.9,2.1s-0.3,1.5-0.9,2.1C18.5,17.7,17.8,18,17,18H3z M3,16h14c0.3,0,0.5-0.1,0.7-0.3
	c0.2-0.2,0.3-0.4,0.3-0.7c0-0.3-0.1-0.5-0.3-0.7C17.5,14.1,17.3,14,17,14H3c-0.3,0-0.5,0.1-0.7,0.3C2.1,14.5,2,14.7,2,15
	c0,0.3,0.1,0.5,0.3,0.7C2.5,15.9,2.7,16,3,16z M8,10c-0.3,0-0.5-0.1-0.7-0.3C7.1,9.5,7,9.3,7,9V1c0-0.3,0.1-0.5,0.3-0.7
	C7.5,0.1,7.7,0,8,0h8c0.3,0,0.5,0.1,0.7,0.3C16.9,0.5,17,0.7,17,1v8c0,0.3-0.1,0.5-0.3,0.7C16.5,9.9,16.3,10,16,10H8z M9,8h6V2H9V8z
	 M0,8V6h4.9V8H0z M10,5h4V3h-4V5z M2,5h2.9V3H2V5z M9,8V2V8z"/>
</svg>
