<?xml version="1.0" encoding="utf-8"?>
<!-- Generator: Adobe Illustrator 28.1.0, SVG Export Plug-In . SVG Version: 6.00 Build 0)  -->
<svg version="1.1" id="Ebene_1" xmlns="http://www.w3.org/2000/svg" xmlns:xlink="http://www.w3.org/1999/xlink" x="0px" y="0px"
	 viewBox="0 0 16 19" style="enable-background:new 0 0 16 19;" xml:space="preserve">
<style type="text/css">
	.st0{fill:#00599C;}
</style>
<path class="st0" d="M2,19v-1l1.5-1c-1,0-1.8-0.3-2.5-1s-1-1.5-1-2.5V4c0-1.4,0.6-2.4,1.9-3S5.2,0,8,0c2.9,0,4.9,0.3,6.2,0.9
	S16,2.6,16,4v9.5c0,1-0.3,1.8-1,2.5s-1.5,1-2.5,1l1.5,1v1H2z M2,8h5V5H2V8z M12.5,10H2h12H12.5z M9,8h5V5H9V8z M4.5,14
	c0.4,0,0.8-0.1,1.1-0.4C5.9,13.3,6,12.9,6,12.5c0-0.4-0.1-0.8-0.4-1.1C5.3,11.1,4.9,11,4.5,11s-0.8,0.1-1.1,0.4
	C3.1,11.7,3,12.1,3,12.5c0,0.4,0.1,0.8,0.4,1.1C3.7,13.9,4.1,14,4.5,14z M11.5,14c0.4,0,0.8-0.1,1.1-0.4c0.3-0.3,0.4-0.6,0.4-1.1
	c0-0.4-0.1-0.8-0.4-1.1c-0.3-0.3-0.6-0.4-1.1-0.4s-0.8,0.1-1.1,0.4c-0.3,0.3-0.4,0.6-0.4,1.1c0,0.4,0.1,0.8,0.4,1.1
	C10.7,13.9,11.1,14,11.5,14z M3.5,15h9c0.4,0,0.8-0.1,1.1-0.4c0.3-0.3,0.4-0.6,0.4-1.1V10H2v3.5c0,0.4,0.1,0.8,0.4,1.1
	C2.7,14.9,3.1,15,3.5,15z M8,2C6.6,2,5.4,2.1,4.4,2.2S2.8,2.7,2.5,3h11.2c-0.3-0.3-0.9-0.6-1.9-0.8C10.8,2.1,9.6,2,8,2z M8,3h5.7
	H2.5H8z"/>
</svg>
