<?xml version="1.0" encoding="utf-8"?>
<!-- Generator: Adobe Illustrator 28.1.0, SVG Export Plug-In . SVG Version: 6.00 Build 0)  -->
<svg version="1.1" id="Ebene_1" xmlns="http://www.w3.org/2000/svg" xmlns:xlink="http://www.w3.org/1999/xlink" x="0px" y="0px"
	 viewBox="0 0 24 20" style="enable-background:new 0 0 24 20;" xml:space="preserve">
<style type="text/css">
	.st0{fill:#FFFFFF;}
</style>
<path class="st0" d="M7,20v-4H0l3.9-6H2L9,0l3,4.3L15,0l7,10h-1.9l3.9,6h-7v4h-4v-4h-2v4H7z M16.7,14h3.6l-3.9-6h1.7L15,3.5L13.2,6
	l2.8,4h-1.8L16.7,14z M3.7,14h10.7l-3.9-6h1.7L9,3.5L5.8,8h1.7L3.7,14z M3.7,14h3.9H5.8h6.3h-1.7h3.9H3.7z M16.7,14h-2.6H16h-2.8
	h4.9h-1.7h3.9H16.7z M13,16h4H13z"/>
</svg>
