<?xml version="1.0" encoding="utf-8"?>
<!-- Generator: Adobe Illustrator 28.1.0, SVG Export Plug-In . SVG Version: 6.00 Build 0)  -->
<svg version="1.1" id="Ebene_1" xmlns="http://www.w3.org/2000/svg" xmlns:xlink="http://www.w3.org/1999/xlink" x="0px" y="0px"
	 viewBox="0 0 16 16" style="enable-background:new 0 0 16 16;" xml:space="preserve">
<style type="text/css">
	.st0{fill:#FFFFFF;}
</style>
<path class="st0" d="M8,8C6.9,8,6,7.6,5.2,6.8S4,5.1,4,4s0.4-2,1.2-2.8S6.9,0,8,0s2,0.4,2.8,1.2S12,2.9,12,4s-0.4,2-1.2,2.8
	S9.1,8,8,8z M0,16v-2.8c0-0.6,0.1-1.1,0.4-1.6c0.3-0.5,0.7-0.8,1.2-1.1c1-0.5,2.1-0.9,3.2-1.2C5.8,9.1,6.9,9,8,9s2.2,0.1,3.2,0.4
	c1.1,0.3,2.1,0.6,3.2,1.2c0.5,0.2,0.9,0.6,1.2,1.1c0.3,0.5,0.4,1,0.4,1.6V16H0z M2,14h12v-0.8c0-0.2,0-0.3-0.1-0.5
	c-0.1-0.1-0.2-0.3-0.4-0.3c-0.9-0.4-1.8-0.8-2.7-1C9.9,11.1,8.9,11,8,11s-1.9,0.1-2.8,0.3c-0.9,0.2-1.8,0.6-2.7,1
	c-0.1,0.1-0.3,0.2-0.4,0.3C2,12.9,2,13,2,13.2V14z M8,6c0.6,0,1-0.2,1.4-0.6C9.8,5,10,4.6,10,4S9.8,3,9.4,2.6S8.6,2,8,2
	S7,2.2,6.6,2.6S6,3.5,6,4s0.2,1,0.6,1.4C7,5.8,7.5,6,8,6z"/>
</svg>
