<?xml version="1.0" encoding="utf-8"?>
<!-- Generator: Adobe Illustrator 28.1.0, SVG Export Plug-In . SVG Version: 6.00 Build 0)  -->
<svg version="1.1" id="Ebene_1" xmlns="http://www.w3.org/2000/svg" xmlns:xlink="http://www.w3.org/1999/xlink" x="0px" y="0px"
	 viewBox="0 0 16 19" style="enable-background:new 0 0 16 19;" xml:space="preserve">
<path d="M0,13.5V4c0-0.9,0.2-1.6,0.7-2.1S1.8,1,2.5,0.7s1.6-0.5,2.6-0.6S7,0,8,0c1.1,0,2.1,0,3.1,0.1s1.8,0.3,2.6,0.6
	C14.4,1,15,1.4,15.4,1.9S16,3.1,16,4v9.5c0,1-0.3,1.8-1,2.5s-1.5,1-2.5,1l1.5,1.5V19h-2l-2-2H6l-2,2H2v-0.5L3.5,17
	c-1,0-1.8-0.3-2.5-1S0,14.5,0,13.5z M8,2C6.2,2,4.9,2.1,4.1,2.3S2.8,2.8,2.5,3h11.2c-0.2-0.3-0.8-0.5-1.6-0.7C11.2,2.1,9.9,2,8,2z
	 M2,8h5V5H2V8z M12.5,10H2h12H12.5z M9,8h5V5H9V8z M4.5,14c0.4,0,0.8-0.1,1.1-0.4C5.9,13.3,6,12.9,6,12.5s-0.1-0.8-0.4-1.1
	C5.3,11.1,4.9,11,4.5,11c-0.4,0-0.8,0.1-1.1,0.4S3,12.1,3,12.5s0.1,0.8,0.4,1.1C3.7,13.9,4.1,14,4.5,14z M11.5,14
	c0.4,0,0.8-0.1,1.1-0.4c0.3-0.3,0.4-0.6,0.4-1.1s-0.1-0.8-0.4-1.1S11.9,11,11.5,11c-0.4,0-0.8,0.1-1.1,0.4S10,12.1,10,12.5
	s0.1,0.8,0.4,1.1C10.7,13.9,11.1,14,11.5,14z M3.5,15h9c0.4,0,0.8-0.1,1.1-0.4c0.3-0.3,0.4-0.6,0.4-1.1V10H2v3.5
	c0,0.4,0.1,0.8,0.4,1.1C2.7,14.9,3.1,15,3.5,15z M8,3h5.7H2.5H8z"/>
</svg>
