<?xml version="1.0" encoding="utf-8"?>
<!-- Generator: Adobe Illustrator 28.1.0, SVG Export Plug-In . SVG Version: 6.00 Build 0)  -->
<svg version="1.1" id="Ebene_1" xmlns="http://www.w3.org/2000/svg" xmlns:xlink="http://www.w3.org/1999/xlink" x="0px" y="0px"
	 viewBox="0 0 16 22" style="enable-background:new 0 0 16 22;" xml:space="preserve">
<path d="M0,16.5V7c0-1.6,0.7-2.7,2.1-3.2S5.2,3,7,3l0.8-1.5H3V0h10v1.5H9.8L9,3c2,0,3.6,0.3,5,0.8s2,1.6,2,3.2v9.5
	c0,1-0.3,1.8-1,2.5c-0.7,0.7-1.5,1-2.5,1l1.5,1.5V22h-2l-2-2H6l-2,2H2v-0.5L3.5,20c-1,0-1.8-0.3-2.5-1C0.3,18.3,0,17.5,0,16.5z
	 M12.5,13H2h12H12.5z M8,17c0.4,0,0.8-0.1,1.1-0.4c0.3-0.3,0.4-0.6,0.4-1.1c0-0.4-0.1-0.8-0.4-1.1C8.8,14.1,8.4,14,8,14
	c-0.4,0-0.8,0.1-1.1,0.4c-0.3,0.3-0.4,0.6-0.4,1.1c0,0.4,0.1,0.8,0.4,1.1C7.2,16.9,7.6,17,8,17z M8,6h5.7H2.4H8z M2,11h12V8H2V11z
	 M3.5,18h9c0.4,0,0.8-0.1,1.1-0.4s0.4-0.6,0.4-1.1V13H2v3.5c0,0.4,0.1,0.8,0.4,1.1C2.7,17.9,3.1,18,3.5,18z M8,5
	C5.7,5,4.3,5.1,3.7,5.4S2.6,5.8,2.4,6h11.2c-0.2-0.2-0.6-0.5-1.3-0.7S10.2,5,8,5z"/>
</svg>
