<svg width="55" height="56" viewBox="0 0 55 56" fill="none" xmlns="http://www.w3.org/2000/svg">
<g clipPath="url(#clip0_8153_14871)">
<path d="M9.8125 24.4744L9.46875 21.7705C8.46875 21.5554 7.5625 21.2174 6.6875 20.7565C5.8125 20.2956 5.03125 19.7118 4.34375 18.9744L1.6875 20.1112L0 17.4995L2.34375 15.5945C2 14.6112 1.8125 13.5973 1.8125 12.5219C1.8125 11.4464 2 10.4325 2.34375 9.44923L0 7.5442L1.6875 4.93246L4.34375 6.06934C5.03125 5.33191 5.8125 4.74811 6.6875 4.28721C7.5625 3.82632 8.46875 3.48833 9.46875 3.27325L9.8125 0.569336H12.9375L13.2812 3.27325C14.2812 3.48833 15.1875 3.82632 16.0625 4.28721C16.9375 4.74811 17.7188 5.33191 18.4062 6.06934L21.0625 4.93246L22.75 7.5442L20.4062 9.44923C20.75 10.4325 20.9375 11.4464 20.9375 12.5219C20.9375 13.5973 20.75 14.6112 20.4062 15.5945L22.75 17.4995L21.0625 20.1112L18.4062 18.9744C17.7188 19.7118 16.9375 20.2956 16.0625 20.7565C15.1875 21.2174 14.2812 21.5554 13.2812 21.7705L12.9375 24.4744H9.8125ZM11.375 19.1587C13.25 19.1587 14.8438 18.5135 16.1562 17.223C17.4688 15.9325 18.125 14.3654 18.125 12.5219C18.125 10.6783 17.4688 9.11124 16.1562 7.82073C14.8438 6.53023 13.25 5.88498 11.375 5.88498C9.5 5.88498 7.90625 6.53023 6.59375 7.82073C5.28125 9.11124 4.625 10.6783 4.625 12.5219C4.625 14.3654 5.28125 15.9325 6.59375 17.223C7.90625 18.5135 9.5 19.1587 11.375 19.1587ZM38.75 55.6001L38.1875 52.3431C36.7812 52.1895 35.4688 51.7593 34.25 51.0833C33.0312 50.3766 32 49.4855 31.1562 48.3794L28.0938 49.547L26.1875 46.4129L28.7812 44.3543C28.1875 43.0023 27.9062 41.6196 27.9062 40.1755C27.9062 38.7313 28.1875 37.3487 28.7812 35.9967L26.1875 33.9381L28.0938 30.804L31.1562 31.9716C32 30.8654 33.0312 29.9436 34.25 29.2677C35.4688 28.561 36.7812 28.1615 38.1875 28.0079L38.75 24.7509H42.4375L43 28.0079C44.4062 28.1615 45.7188 28.5917 46.9375 29.2677C48.1562 29.9744 49.1875 30.8654 50.0312 31.9716L53.0938 30.804L55 33.9381L52.4062 35.9967C53 37.3487 53.2812 38.7313 53.2812 40.1755C53.2812 41.6196 53 43.0023 52.4062 44.3543L55 46.4129L53.0938 49.547L50.0312 48.3794C49.1875 49.4855 48.1562 50.4073 46.9375 51.0833C45.7188 51.7593 44.4062 52.1895 43 52.3431L42.4375 55.6001H38.75ZM40.5938 49.3934C43.1875 49.3934 45.4062 48.5023 47.25 46.6894C49.0625 44.9073 50 42.7258 50 40.1448C50 37.5638 49.0938 35.4129 47.25 33.6001C45.4062 31.7872 43.2188 30.8962 40.5938 30.8962C37.9688 30.8962 35.7812 31.7872 33.9375 33.6001C32.0938 35.4129 31.1875 37.5638 31.1875 40.1448C31.1875 42.7258 32.0938 44.8766 33.9375 46.6894C35.75 48.4716 37.9688 49.3934 40.5938 49.3934Z" fill="white"/>
</g>
<defs>
<clipPath id="clip0_8153_14871">
<rect width="55" height="55" fill="white" transform="translate(0 0.600098)"/>
</clipPath>
</defs>
</svg>
