<svg version="1.2" xmlns="http://www.w3.org/2000/svg" viewBox="0 0 1515 1010" width="1515" height="1010">
	<title>Stadler_logo (1)-svg</title>
	<style>
		.s0 { fill: #005a96 } 
	</style>
	<g id="Layer">
		<path id="Layer" class="s0" d="m0 677.7h351.8c0 0 16 73.2 109.6 66.3h651c0 0 59.4 4.6 59.4-57.2 0-66.3-57.1-59.5-57.1-59.5h-765.2c-125.6 0-317.5-82.3-317.5-331.8 0 0 20.5-295.2 283.2-295.2h856.6c0 0 310.6-4.6 338.1 322.7h-340.4c0 0-16-59.5-66.2-59.5h-671.6c0 0-63.9 2.3-63.9 57.2 0 0-6.9 57.2 59.3 57.2h737.8c0 0 340.4-9.2 349.5 315.8 0 0 18.3 315.8-349.5 315.8h-826.8c0 0-338.1 2.3-338.1-331.8z"/>
	</g>
</svg>