<svg width="242" height="24" viewBox="0 0 242 24" fill="none" xmlns="http://www.w3.org/2000/svg">
<path d="M68.0071 6.02767V0H34.5399V6.02767H47.6169V23.9915H54.9727V6.02767H68.0071Z" fill="#005893"/>
<path d="M148.163 17.9638V0H140.807V23.9915H167.728V17.9723L148.163 17.9638Z" fill="#005893"/>
<path d="M171.474 0.00851366V23.9915H203.4V17.9808H178.829V14.669H200.709V9.2884H178.829V6.0447H203.4V0.00851366H171.474Z" fill="#005893"/>
<path d="M133.937 3.10749C131.698 1.15786 128.718 0 125.985 0H102.717V23.9915H126.573C128.999 23.9915 131.834 22.7911 133.988 20.8585C136.559 18.5513 137.972 15.3927 137.972 11.9617C137.972 7.53459 135.784 4.70805 133.945 3.10749H133.937ZM130.659 11.9957C130.659 15.2905 128.139 17.9638 125.049 17.9638H110.073V6.02767H125.049C128.139 6.02767 130.659 8.70947 130.659 11.9957Z" fill="#005893"/>
<path d="M236.254 14.5328C240.443 12.6002 241.303 10.3526 241.303 7.57715C241.303 3.8056 238.536 0.00851366 232.363 0.00851366H207.537V24H214.893V15.6566H229.733L233.972 24H241.337L236.263 14.5413L236.254 14.5328ZM233.947 7.84108C233.947 8.70947 233.257 9.65449 232.133 9.65449H214.893V6.02767H232.133C233.257 6.02767 233.947 6.97269 233.947 7.84108Z" fill="#005893"/>
<path d="M86.1752 0H77.0145L62.005 23.9915H70.1525L72.2724 20.6031H90.9259L93.0458 23.9915H101.193L86.1752 0ZM81.6034 14.5669H76.0355L81.5864 5.70415L87.1373 14.5754H81.5949L81.6034 14.5669Z" fill="#005893"/>
<path d="M26.6477 8.98191H8.00284C7.27918 8.98191 6.58957 8.32636 6.58957 7.50053C6.58957 6.67471 7.25364 6.01916 8.04541 6.01916H31.6368V0H7.64526C3.431 0 0 3.431 0 7.64526C0 11.8595 3.431 15.0096 7.64526 15.0096H26.0007C26.8861 15.0096 27.4821 15.7162 27.4821 16.4824C27.4821 17.3168 26.7925 17.9723 26.0007 17.9723H0.587442V24H26.6477C30.7428 24 34.0717 20.6712 34.0717 16.5761C34.0717 12.481 30.7428 8.99042 26.6477 8.99042V8.98191Z" fill="#005893"/>
</svg>