<svg width="242" height="25" viewBox="0 0 242 25" fill="none" xmlns="http://www.w3.org/2000/svg">
<path d="M68.0071 6.29915V0.271484H34.5399V6.29915H47.6169V24.263H54.9727V6.29915H68.0071Z" fill="white"/>
<path d="M148.163 18.2353V0.271484H140.807V24.263H167.728V18.2438L148.163 18.2353Z" fill="white"/>
<path d="M171.474 0.279998V24.263H203.4V18.2523H178.829V14.9405H200.709V9.55988H178.829V6.31618H203.4V0.279998H171.474Z" fill="white"/>
<path d="M133.937 3.37897C131.698 1.42934 128.718 0.271484 125.985 0.271484H102.717V24.263H126.573C128.999 24.263 131.834 23.0625 133.988 21.1299C136.559 18.8227 137.972 15.6642 137.972 12.2332C137.972 7.80607 135.784 4.97954 133.945 3.37897H133.937ZM130.659 12.2672C130.659 15.562 128.139 18.2353 125.049 18.2353H110.073V6.29915H125.049C128.139 6.29915 130.659 8.98096 130.659 12.2672Z" fill="white"/>
<path d="M236.254 14.8043C240.443 12.8717 241.303 10.6241 241.303 7.84864C241.303 4.07709 238.536 0.279998 232.363 0.279998H207.537V24.2715H214.893V15.9281H229.733L233.972 24.2715H241.337L236.262 14.8128L236.254 14.8043ZM233.947 8.11256C233.947 8.98096 233.257 9.92597 232.133 9.92597H214.893V6.29915H232.133C233.257 6.29915 233.947 7.24417 233.947 8.11256Z" fill="white"/>
<path d="M86.1752 0.271484H77.0145L62.005 24.263H70.1525L72.2724 20.8745H90.9259L93.0458 24.263H101.193L86.1752 0.271484ZM81.6034 14.8384H76.0355L81.5864 5.97563L87.1373 14.8469H81.5949L81.6034 14.8384Z" fill="white"/>
<path d="M26.6477 9.25339H8.00284C7.27918 9.25339 6.58957 8.59784 6.58957 7.77202C6.58957 6.94619 7.25363 6.29064 8.04541 6.29064H31.6367V0.271484H7.64526C3.431 0.271484 0 3.70249 0 7.91675C0 12.131 3.431 15.2811 7.64526 15.2811H26.0007C26.8861 15.2811 27.4821 15.9877 27.4821 16.7539C27.4821 17.5883 26.7925 18.2438 26.0007 18.2438H0.587442V24.2715H26.6477C30.7428 24.2715 34.0717 20.9426 34.0717 16.8476C34.0717 12.7525 30.7428 9.26191 26.6477 9.26191V9.25339Z" fill="white"/>
</svg>
