<?xml version="1.0" encoding="UTF-8"?>
<svg xmlns="http://www.w3.org/2000/svg" xmlns:xlink="http://www.w3.org/1999/xlink" width="25px" height="17px" viewBox="0 0 25 17" version="1.1">
<g id="surface1">
<path style=" stroke:none;fill-rule:nonzero;fill:rgb(0%,35.294118%,58.823529%);fill-opacity:1;" d="M 0 11.40625 L 5.804688 11.40625 C 5.804688 11.40625 6.070312 12.640625 7.613281 12.523438 L 18.355469 12.523438 C 18.355469 12.523438 19.335938 12.601562 19.335938 11.558594 C 19.335938 10.445312 18.394531 10.558594 18.394531 10.558594 L 5.765625 10.558594 C 3.695312 10.558594 0.527344 9.171875 0.527344 4.972656 C 0.527344 4.972656 0.867188 0.00390625 5.203125 0.00390625 L 19.335938 0.00390625 C 19.335938 0.00390625 24.460938 -0.0742188 24.914062 5.4375 L 19.296875 5.4375 C 19.296875 5.4375 19.035156 4.433594 18.207031 4.433594 L 7.125 4.433594 C 7.125 4.433594 6.070312 4.472656 6.070312 5.398438 C 6.070312 5.398438 5.957031 6.359375 7.046875 6.359375 L 19.222656 6.359375 C 19.222656 6.359375 24.839844 6.207031 24.988281 11.675781 C 24.988281 11.675781 25.292969 16.992188 19.222656 16.992188 L 5.578125 16.992188 C 5.578125 16.992188 0 17.03125 0 11.40625 Z M 0 11.40625 "/>
</g>
</svg>
