<?xml version="1.0" encoding="utf-8"?>
<!-- Generator: Adobe Illustrator 28.1.0, SVG Export Plug-In . SVG Version: 6.00 Build 0)  -->
<svg version="1.1" id="Ebene_1" xmlns="http://www.w3.org/2000/svg" xmlns:xlink="http://www.w3.org/1999/xlink" x="0px" y="0px"
	 viewBox="0 0 20 20" style="enable-background:new 0 0 20 20;" xml:space="preserve">
<style type="text/css">
	.st0{fill:#00599C;}
</style>
<path class="st0" d="M10,20c-1.4,0-2.7-0.3-3.9-0.8c-1.2-0.5-2.3-1.2-3.2-2.1s-1.6-2-2.1-3.2S0,11.4,0,10c0-1.4,0.3-2.7,0.8-3.9
	S2,3.8,2.9,2.9s2-1.6,3.2-2.1S8.6,0,10,0s2.7,0.3,3.9,0.8s2.3,1.2,3.2,2.1s1.6,2,2.1,3.2C19.7,7.3,20,8.6,20,10
	c0,1.4-0.3,2.7-0.8,3.9c-0.5,1.2-1.2,2.3-2.1,3.2s-2,1.6-3.2,2.1C12.7,19.7,11.4,20,10,20z M10,18c2.2,0,4.1-0.8,5.7-2.3
	S18,12.2,18,10c0-0.1,0-0.2,0-0.4c0-0.1,0-0.2,0-0.3c-0.1,0.5-0.3,0.9-0.7,1.2C16.9,10.8,16.5,11,16,11h-2c-0.6,0-1-0.2-1.4-0.6
	C12.2,10,12,9.6,12,9V8H8V6c0-0.5,0.2-1,0.6-1.4S9.4,4,10,4h1c0-0.4,0.1-0.7,0.3-1s0.5-0.5,0.8-0.7c-0.3-0.1-0.7-0.2-1-0.2
	C10.7,2,10.4,2,10,2C7.8,2,5.9,2.8,4.3,4.3S2,7.8,2,10h5c1.1,0,2,0.4,2.8,1.2C10.6,12,11,12.9,11,14v1H8v2.8c0.3,0.1,0.7,0.1,1,0.2
	C9.3,18,9.7,18,10,18z"/>
</svg>
