<?xml version="1.0" encoding="utf-8"?>
<!-- Generator: Adobe Illustrator 28.1.0, SVG Export Plug-In . SVG Version: 6.00 Build 0)  -->
<svg version="1.1" id="Ebene_1" xmlns="http://www.w3.org/2000/svg" xmlns:xlink="http://www.w3.org/1999/xlink" x="0px" y="0px"
	 viewBox="0 0 18 18.5" style="enable-background:new 0 0 18 18.5;" xml:space="preserve">
<style type="text/css">
	.st0{fill:#00599C;}
</style>
<path class="st0" d="M1,18.5v-3h3.1L1.6,7.2C1.1,6.9,0.7,6.5,0.4,6.1S0,5.1,0,4.5C0,3.7,0.3,3,0.9,2.4S2.2,1.5,3,1.5
	c0.7,0,1.2,0.2,1.7,0.6s0.9,0.9,1.1,1.4H9v-1C9,2.2,9.1,2,9.3,1.8S9.7,1.5,10,1.5c0.2,0,0.3,0,0.4,0.1c0.1,0.1,0.3,0.2,0.4,0.3
	l1.7-1.6C12.7,0.2,12.8,0.1,13,0s0.4,0,0.6,0.1l3.9,1.8C17.8,2,17.9,2.2,18,2.3C18,2.5,18,2.7,18,2.9c-0.1,0.2-0.2,0.3-0.4,0.4
	s-0.4,0-0.6,0l-3.6-1.7L11,3.8v1.4l2.4,2.2L17,5.7c0.2-0.1,0.4-0.1,0.6,0c0.2,0.1,0.3,0.2,0.4,0.4c0.1,0.2,0.1,0.4,0,0.6
	S17.8,7,17.6,7.1l-3.9,1.9C13.4,9,13.2,9,13,9c-0.2,0-0.4-0.1-0.5-0.3l-1.7-1.6c-0.1,0.1-0.2,0.2-0.4,0.3c-0.1,0.1-0.3,0.1-0.4,0.1
	c-0.3,0-0.5-0.1-0.7-0.3C9.1,7,9,6.8,9,6.5v-1H5.8C5.8,5.6,5.7,5.8,5.6,5.9C5.6,6,5.5,6.1,5.4,6.3l5,9.2H14v3H1z M3,5.5
	c0.3,0,0.5-0.1,0.7-0.3C3.9,5,4,4.8,4,4.5S3.9,4,3.7,3.8S3.3,3.5,3,3.5S2.5,3.6,2.3,3.8C2.1,4,2,4.2,2,4.5S2.1,5,2.3,5.2
	C2.5,5.4,2.7,5.5,3,5.5z M6.2,15.5h2l-4.3-8H3.7L6.2,15.5z"/>
</svg>
