<?xml version="1.0" encoding="utf-8"?>
<!-- Generator: Adobe Illustrator 28.1.0, SVG Export Plug-In . SVG Version: 6.00 Build 0)  -->
<svg version="1.1" id="Ebene_1" xmlns="http://www.w3.org/2000/svg" xmlns:xlink="http://www.w3.org/1999/xlink" x="0px" y="0px"
	 viewBox="0 0 20 22.5" style="enable-background:new 0 0 20 22.5;" xml:space="preserve">
<style type="text/css">
	.st0{fill:#00599C;}
</style>
<path class="st0" d="M8.8,22.5l-1.4-1.4l1.8-1.8H5.8c-0.2,0.6-0.6,1.1-1.1,1.4S3.7,21.2,3,21.2c-0.8,0-1.5-0.3-2.1-0.9
	C0.3,19.8,0,19.1,0,18.2c0-0.6,0.2-1.2,0.6-1.7s0.9-0.9,1.4-1.1V7.1C1.4,6.9,0.9,6.5,0.6,6S0,4.9,0,4.2c0-0.8,0.3-1.5,0.9-2.1
	S2.2,1.2,3,1.2c0.7,0,1.2,0.2,1.7,0.6s0.9,0.9,1.1,1.4h3.3L7.3,1.4L8.8,0L13,4.2L8.8,8.5L7.3,7.1l1.8-1.8H5.8
	C5.7,5.7,5.4,6.1,5.1,6.4C4.8,6.7,4.4,6.9,4,7.1v8.4c0.4,0.1,0.8,0.4,1.1,0.7c0.3,0.3,0.6,0.7,0.7,1.1h3.3l-1.8-1.8L8.8,14l4.2,4.2
	L8.8,22.5z M17,21.2c-0.8,0-1.5-0.3-2.1-0.9c-0.6-0.6-0.9-1.3-0.9-2.1c0-0.7,0.2-1.3,0.6-1.8c0.4-0.5,0.9-0.9,1.4-1.1V7.1
	c-0.6-0.2-1.1-0.6-1.4-1.1S14,4.9,14,4.2c0-0.8,0.3-1.5,0.9-2.1s1.3-0.9,2.1-0.9c0.8,0,1.5,0.3,2.1,0.9C19.7,2.7,20,3.4,20,4.2
	c0,0.7-0.2,1.3-0.6,1.8S18.6,6.9,18,7.1v8.4c0.6,0.2,1.1,0.6,1.4,1.1s0.6,1.1,0.6,1.7c0,0.8-0.3,1.5-0.9,2.1
	C18.5,21,17.8,21.2,17,21.2z M3,19.2c0.3,0,0.5-0.1,0.7-0.3C3.9,18.8,4,18.5,4,18.2s-0.1-0.5-0.3-0.7S3.3,17.2,3,17.2
	s-0.5,0.1-0.7,0.3C2.1,17.7,2,18,2,18.2s0.1,0.5,0.3,0.7C2.5,19.2,2.7,19.2,3,19.2z M17,19.2c0.3,0,0.5-0.1,0.7-0.3
	c0.2-0.2,0.3-0.4,0.3-0.7s-0.1-0.5-0.3-0.7c-0.2-0.2-0.4-0.3-0.7-0.3s-0.5,0.1-0.7,0.3S16,18,16,18.2s0.1,0.5,0.3,0.7
	C16.5,19.2,16.7,19.2,17,19.2z M3,5.2c0.3,0,0.5-0.1,0.7-0.3S4,4.5,4,4.2S3.9,3.7,3.7,3.5C3.5,3.3,3.3,3.2,3,3.2S2.5,3.3,2.3,3.5
	C2.1,3.7,2,4,2,4.2S2.1,4.8,2.3,5C2.5,5.2,2.7,5.2,3,5.2z M17,5.2c0.3,0,0.5-0.1,0.7-0.3C17.9,4.8,18,4.5,18,4.2s-0.1-0.5-0.3-0.7
	c-0.2-0.2-0.4-0.3-0.7-0.3s-0.5,0.1-0.7,0.3C16.1,3.7,16,4,16,4.2s0.1,0.5,0.3,0.7S16.7,5.2,17,5.2z"/>
</svg>
