<?xml version="1.0" encoding="utf-8"?>
<!-- Generator: Adobe Illustrator 28.1.0, SVG Export Plug-In . SVG Version: 6.00 Build 0)  -->
<svg version="1.1" id="Ebene_1" xmlns="http://www.w3.org/2000/svg" xmlns:xlink="http://www.w3.org/1999/xlink" x="0px" y="0px"
	 viewBox="0 0 18 18" style="enable-background:new 0 0 18 18;" xml:space="preserve">
<style type="text/css">
	.st0{fill:#00599C;}
</style>
<path class="st0" d="M16.6,18l-6.3-6.3c-0.5,0.4-1.1,0.7-1.7,1C7.9,12.9,7.2,13,6.5,13c-1.8,0-3.4-0.6-4.6-1.9S0,8.3,0,6.5
	s0.6-3.4,1.9-4.6S4.7,0,6.5,0s3.4,0.6,4.6,1.9S13,4.7,13,6.5c0,0.7-0.1,1.4-0.3,2.1c-0.2,0.7-0.6,1.2-1,1.7l6.3,6.3L16.6,18z
	 M6.5,11c1.2,0,2.3-0.4,3.2-1.3S11,7.8,11,6.5s-0.4-2.3-1.3-3.2S7.8,2,6.5,2S4.2,2.4,3.3,3.3S2,5.2,2,6.5s0.4,2.3,1.3,3.2
	S5.2,11,6.5,11z"/>
</svg>
