<?xml version="1.0" encoding="utf-8"?>
<!-- Generator: Adobe Illustrator 28.3.0, SVG Export Plug-In . SVG Version: 6.00 Build 0)  -->
<svg version="1.1" id="Ebene_1" xmlns="http://www.w3.org/2000/svg" xmlns:xlink="http://www.w3.org/1999/xlink" x="0px" y="0px"
	 viewBox="0 0 18 20" style="enable-background:new 0 0 18 20;" xml:space="preserve">
<path d="M2,20c-0.5,0-1-0.2-1.4-0.6S0,18.6,0,18V4c0-0.5,0.2-1,0.6-1.4S1.5,2,2,2h1V0h2v2h8V0h2v2h1c0.6,0,1,0.2,1.4,0.6
	S18,3.5,18,4v14c0,0.6-0.2,1-0.6,1.4S16.6,20,16,20H2z M2,18h14V8H2V18z M2,6h14V4H2V6z M2,6V4V6z"/>
</svg>
