<svg width="24" height="24" viewBox="0 0 24 24" fill="none" xmlns="http://www.w3.org/2000/svg">
<g clip-path="url(#clip0_62_397)">
<path fill-rule="evenodd" clip-rule="evenodd" d="M12 0C18.6274 0 24 5.37258 24 12C24 18.6274 18.6274 24 12 24C5.37258 24 0 18.6274 0 12C0 5.37258 5.37258 0 12 0ZM15 6H9C7.34315 6 6 7.34315 6 9V15C6 16.6569 7.34315 18 9 18H15C16.6569 18 18 16.6569 18 15V9C18 7.34315 16.6569 6 15 6ZM11.9999 8.7564C13.7912 8.7564 15.2433 10.2085 15.2433 11.9999C15.2433 13.7912 13.7912 15.2434 11.9999 15.2434C10.2085 15.2434 8.75638 13.7912 8.75638 11.9999C8.75638 10.2085 10.2085 8.7564 11.9999 8.7564ZM11.9999 9.89446C10.8371 9.89446 9.89444 10.8371 9.89444 11.9999C9.89444 13.1626 10.8371 14.1053 11.9999 14.1053C13.1626 14.1053 14.1053 13.1626 14.1053 11.9999C14.1053 10.8371 13.1626 9.89446 11.9999 9.89446ZM15.758 7.5C16.1766 7.5 16.5159 7.83933 16.5159 8.25794C16.5159 8.67655 16.1766 9.01587 15.758 9.01587C15.3394 9.01587 15 8.67655 15 8.25794C15 7.83933 15.3394 7.5 15.758 7.5Z" fill="#ffffff"/>
</g>
<defs>
<clipPath id="clip0_62_397">
<rect width="24" height="24" fill="white"/>
</clipPath>
</defs>
</svg>
