<?xml version="1.0" encoding="utf-8"?>
<!-- Generator: Adobe Illustrator 28.3.0, SVG Export Plug-In . SVG Version: 6.00 Build 0)  -->
<svg version="1.1" id="Ebene_1" xmlns="http://www.w3.org/2000/svg" xmlns:xlink="http://www.w3.org/1999/xlink" x="0px" y="0px"
	 viewBox="0 0 16 20" style="enable-background:new 0 0 16 20;" xml:space="preserve">
<path d="M8,10c0.6,0,1-0.2,1.4-0.6C9.8,9,10,8.6,10,8S9.8,7,9.4,6.6S8.6,6,8,6S7,6.2,6.6,6.6S6,7.5,6,8s0.2,1,0.6,1.4
	C7,9.8,7.5,10,8,10z M8,17.4c2-1.9,3.5-3.6,4.5-5.1S14,9.4,14,8.2c0-1.8-0.6-3.3-1.7-4.5S9.7,2,8,2S4.9,2.6,3.7,3.7S2,6.4,2,8.2
	c0,1.2,0.5,2.5,1.5,4.1S6,15.5,8,17.4z M8,20c-2.7-2.3-4.7-4.4-6-6.4S0,9.9,0,8.2c0-2.5,0.8-4.5,2.4-6S5.9,0,8,0s4,0.7,5.6,2.2
	s2.4,3.5,2.4,6c0,1.7-0.7,3.5-2,5.4S10.7,17.7,8,20z"/>
</svg>
